<svg width="23" height="23" viewBox="0 0 23 23" fill="none" xmlns="http://www.w3.org/2000/svg">
<path d="M2.22429 6.53528C2.37991 4.53984 4.04452 3 6.04601 3H16.5446C18.5082 3 20.1543 4.4838 20.3574 6.43686L21.5602 18.0035C21.7953 20.2652 20.0213 22.2333 17.7474 22.2333H5.14393C2.90937 22.2333 1.14846 20.3297 1.32221 18.1019L2.22429 6.53528Z" fill="url(#paint0_linear_1695_1366)"/>
<rect x="2.38333" y="3.38333" width="17.6333" height="16.1" rx="3.45" fill="url(#paint1_linear_1695_1366)"/>
<path d="M10.862 11.7266H8.83976V14.8999H7.8131V7.53696H11.3286C12.8323 7.53696 13.8486 8.2214 13.8486 9.52806C13.8486 10.4199 13.4027 11.0525 12.5005 11.291C12.9879 11.4258 13.6516 11.7888 13.6516 13.0851V13.4066C13.6516 13.9666 13.6516 14.5888 13.7346 14.8999H12.6768C12.5627 14.5784 12.5835 14.0184 12.5835 13.3962V13.1577C12.5835 12.0688 12.1583 11.7266 10.862 11.7266ZM8.83976 8.38732V10.8762H11.059C12.2101 10.8762 12.7805 10.4718 12.7805 9.59028C12.7805 8.79177 12.2101 8.38732 11.1005 8.38732H8.83976Z" fill="black"/>
<rect x="2.38333" y="3.38333" width="17.6333" height="16.1" rx="3.45" stroke="url(#paint2_linear_1695_1366)" stroke-width="0.766667"/>
<defs>
<linearGradient id="paint0_linear_1695_1366" x1="11.5" y1="17" x2="11.5" y2="23.3833" gradientUnits="userSpaceOnUse">
<stop stop-color="#D5D5D5"/>
<stop offset="1" stop-color="#818181"/>
</linearGradient>
<linearGradient id="paint1_linear_1695_1366" x1="11.2" y1="3" x2="11.2" y2="19.8667" gradientUnits="userSpaceOnUse">
<stop stop-color="#CFCFCF"/>
<stop offset="1" stop-color="white"/>
</linearGradient>
<linearGradient id="paint2_linear_1695_1366" x1="11.2" y1="3" x2="11.2" y2="19.8667" gradientUnits="userSpaceOnUse">
<stop stop-color="#B9B9B9"/>
<stop offset="1" stop-color="#D6D6D6"/>
</linearGradient>
</defs>
</svg>
