<svg width="1728" height="1613" viewBox="0 0 1728 1613" fill="none" xmlns="http://www.w3.org/2000/svg">
<path fill-rule="evenodd" clip-rule="evenodd" d="M1648.22 1100.92C1642.86 1167.4 1613.57 1222.72 1541.66 1305.22C1575.01 1137.65 1439.41 884.971 1317.51 785.677C1282.82 759.357 1250.64 744.93 1220.08 731.224C1177.31 712.048 1137.7 694.286 1098.76 647.338C1010.77 569.675 1136.63 365.213 1270.81 364.88C1352.59 364.678 1586.34 392.587 1699.72 684.452C1753.92 823.982 1715.95 959.446 1699.8 1017.03C1698.02 1023.39 1696.5 1028.79 1695.41 1033.15C1676.24 963.943 1610.22 779.315 1550.24 741.833C1491.34 705.02 1462.2 737.644 1494.84 790.757C1501.29 801.249 1511.36 815.5 1523.33 832.446C1571.98 901.29 1652.05 1014.6 1648.22 1100.92ZM1260.14 525.947C1213.7 586.877 1415.86 649.054 1391.36 594.388C1370.26 547.289 1280.95 486.047 1260.14 525.947Z" fill="white"/>
<path d="M1099.55 1567.6C1130.15 1556.49 1266.39 1522.56 1280.23 1490.4C1344.62 1340.72 1304.73 1102.13 1114.01 934.883C1052.17 889.098 1110.24 859.295 1148.37 894.825C1335.46 1069.14 1388.48 1282.84 1324.81 1473.04C1358.94 1451.94 1409.24 1426.07 1434.28 1387.48C1515.8 1261.84 1457.44 1057.99 1294.47 877.415C1200.4 780.978 1117.21 728.567 1051.71 727.677C986.207 726.788 886.141 810.503 910.164 896.34C928.873 963.191 1039.99 983.684 1121.11 1128.73C1172.76 1221.08 1187.41 1432.64 1099.55 1567.6Z" fill="white"/>
<path d="M748.761 1014.71C782.332 979.777 816.362 934.367 844.227 900.403C832.268 971.987 907.698 988.288 915.518 1021.05C921.361 1045.52 884.393 1036.39 869.597 1077.74C854.801 1119.08 868.014 1164.18 914.762 1158.81C936.912 1156.27 973.514 1141.42 998.948 1092.65C1016.8 1134.11 1067.42 1168.96 1065.27 1203.37C1064.07 1222.48 1018.5 1263.67 993.733 1286.28C968.97 1308.89 987.918 1359.94 1022.13 1377.78C1034.55 1384.26 1059.58 1378.6 1097.27 1306.34C1114.47 1359.86 1071.69 1533.79 983.292 1589.76C894.983 1614.19 858.21 1604.14 739.692 1612.25C912.039 1499.13 899.25 1359.37 847.939 1286.93C815.742 1241.48 763.153 1208.39 742.495 1175.55C706.425 1118.19 698.325 1070.74 748.761 1014.71Z" fill="white"/>
<path fill-rule="evenodd" clip-rule="evenodd" d="M653.677 1118.51C544.316 1236.29 310.73 1438.71 128.014 1556.57C167.263 1571.78 314.812 1600.2 531.725 1606.42C770.086 1613.25 867.35 1347.07 696.539 1257.98C639.449 1228.2 644.552 1189.2 651.208 1138.31C652.047 1131.9 652.91 1125.3 653.677 1118.51ZM540.583 1425.82C577.516 1443.28 646.775 1428.25 632.422 1353.73C614.481 1260.59 487.778 1380.7 540.583 1425.82Z" fill="white"/>
<path d="M61.8703 1540.68C739.526 1083.88 1027.51 566.473 1086.79 364.869C1112.25 105.213 706.798 -232.574 221.385 229.306C308.406 192.925 589.118 222.262 759.674 386.557C917.697 538.778 827.07 630.358 709.037 483.645C620.566 373.676 349.639 183.414 139.968 360.529C115.103 389.103 20.6157 529.263 0.0625 747.721C244.102 496.047 453.998 541.233 631.352 671.517C736.134 748.489 651.087 838.016 569.842 750.529C385.939 583.453 157.936 620.17 24.0057 825.059C18.4262 854.858 2.07492 883.326 63.3037 1090.3C190.243 846.911 442.261 822.147 515.981 944.62C547.451 996.903 500.8 1059.53 450.538 1018.2C343.483 882.18 110.29 1016.58 101.077 1209.25C115.771 1329.59 165.236 1392.61 61.8703 1540.68Z" fill="white"/>
</svg>
