<svg width="515" height="515" viewBox="0 0 515 515" fill="none" xmlns="http://www.w3.org/2000/svg">
<path d="M424.629 453.419C405.793 459.567 379.052 465.813 345.578 465.813C256.085 465.813 151.27 395.253 100.424 275.311C83.8327 296.976 70.9504 332.891 70.9504 369.684C70.9504 444.83 141.315 515 257.939 515C329.377 515 386.177 486.21 424.629 453.419ZM61.5814 424.629C55.433 405.793 49.187 379.052 49.187 345.578C49.187 256.085 119.747 151.172 239.689 100.424C218.023 83.8327 182.109 70.8528 145.219 70.8528C70.072 70.8528 0 141.218 0 257.842C0 329.377 28.79 386.177 61.5814 424.629ZM90.3714 61.5814C109.207 55.433 135.948 49.187 169.422 49.187C258.915 49.187 363.828 119.747 414.576 239.689C431.167 218.023 444.05 182.109 444.05 145.219C444.147 70.072 373.782 0 257.158 0C185.623 0 128.823 28.79 90.3714 61.5814ZM453.419 90.3714C486.21 128.726 515 185.623 515 257.158C515 373.782 444.928 444.147 369.781 444.147C332.891 444.147 296.976 431.167 275.311 414.576C395.253 363.73 465.813 258.818 465.813 169.422C465.813 135.948 459.567 109.207 453.419 90.3714Z" fill="white"/>
</svg>
