<svg xmlns="http://www.w3.org/2000/svg" width="1200" height="600" viewBox="0 0 9600 4800">
	<title>Flag of Toronto</title>
	<defs>
		<clipPath id="c">
			<path d="m0 0h9600v4800H0z"/>
		</clipPath>
	</defs>
	<path fill="#274490" d="m0 0h9600v4800H0z"/>
	<g clip-path="url(#c)">
		<path fill="none" stroke="#fff" stroke-width="900" d="m-520 750c769 335 1880 618 3590 626v2464h1556v-2464c1710-8 3871-125 5494-751m-7126 975v3200h1708v-3200"/>
		<path fill="#f00" transform="matrix(0.54,0,0,0.54,3848,4000)" d="m-90 2030 45-863a95 95 0 0 0-111-98l-859 151 116-320a65 65 0 0 0-20-73l-941-762 212-99a65 65 0 0 0 34-79l-186-572 542 115a65 65 0 0 0 73-38l105-247 423 454a65 65 0 0 0 111-57l-204-1052 327 189a65 65 0 0 0 91-27l332-652 332 652a65 65 0 0 0 91 27l327-189-204 1052a65 65 0 0 0 111 57l423-454 105 247a65 65 0 0 0 73 38l542-115-186 572a65 65 0 0 0 34 79l212 99-941 762a65 65 0 0 0-20 73l116 320-859-151a95 95 0 0 0-111 98l45 863z"/>
	</g>
</svg>
